<svg xmlns="http://www.w3.org/2000/svg" viewBox="0 0 900 500">
  <defs>
    <style>
      .title { font-family: system-ui, sans-serif; font-weight: 800; font-size: 28px; }
      .subtitle { font-family: system-ui, sans-serif; font-weight: 600; font-size: 14px; }
      .box-title { font-family: system-ui, sans-serif; font-weight: 700; font-size: 16px; }
      .box-text { font-family: system-ui, sans-serif; font-weight: 400; font-size: 11px; fill: #475569; }
      .label { font-family: system-ui, sans-serif; font-weight: 600; font-size: 12px; }
    </style>
  </defs>

  <!-- Background -->
  <rect width="900" height="500" fill="#fff5f0"/>

  <!-- KasFlow Logo - Top Right -->
  <g transform="translate(830, 15)">
    <rect width="40" height="40" rx="8" fill="#bef264" stroke="#000" stroke-width="3"/>
    <text x="20" y="30" text-anchor="middle" font-family="system-ui, sans-serif" font-weight="900" font-size="22" fill="#000">K</text>
  </g>
  <text x="850" y="65" text-anchor="middle" font-family="system-ui, sans-serif" font-weight="700" font-size="14" fill="#000">KasFlow</text>

  <!-- Title -->
  <text x="450" y="40" text-anchor="middle" class="title" fill="#000">KasFlow Architecture</text>
  <text x="450" y="65" text-anchor="middle" class="subtitle" fill="#475569">Complete Payment Toolkit for Kaspa</text>

  <!-- Left Side: SDK Packages -->
  <g transform="translate(30, 100)">
    <!-- Package 1: Passkey Wallet -->
    <rect width="260" height="160" rx="12" fill="#bef264" stroke="#000" stroke-width="4"/>
    <rect x="6" y="6" width="260" height="160" rx="12" fill="#000" opacity="0.1"/>

    <text x="130" y="35" text-anchor="middle" class="box-title" fill="#000">@kasflow/passkey-wallet</text>
    <line x1="20" y1="50" x2="240" y2="50" stroke="#000" stroke-width="2"/>

    <text x="130" y="75" text-anchor="middle" class="box-text">Biometric Authentication</text>
    <text x="130" y="95" text-anchor="middle" class="box-text">Deterministic Key Derivation</text>
    <text x="130" y="115" text-anchor="middle" class="box-text">Transaction Signing</text>
    <text x="130" y="135" text-anchor="middle" class="box-text">Multi-Network Support</text>

    <!-- npm badge -->
    <rect x="75" y="145" width="110" height="20" rx="4" fill="#000"/>
    <text x="130" y="159" text-anchor="middle" font-size="10" fill="#fff" font-family="monospace">npm install</text>
  </g>

  <!-- Package 2: Wallet Connector -->
  <g transform="translate(30, 280)">
    <rect width="260" height="160" rx="12" fill="#22d3ee" stroke="#000" stroke-width="4"/>
    <rect x="6" y="6" width="260" height="160" rx="12" fill="#000" opacity="0.1"/>

    <text x="130" y="35" text-anchor="middle" class="box-title" fill="#000">@kasflow/wallet-connector</text>
    <line x1="20" y1="50" x2="240" y2="50" stroke="#000" stroke-width="2"/>

    <text x="130" y="75" text-anchor="middle" class="box-text">React Hooks (useWallet, useBalance)</text>
    <text x="130" y="95" text-anchor="middle" class="box-text">ConnectButton Component</text>
    <text x="130" y="115" text-anchor="middle" class="box-text">Multi-Wallet Support</text>
    <text x="130" y="135" text-anchor="middle" class="box-text">TypeScript Ready</text>

    <!-- npm badge -->
    <rect x="75" y="145" width="110" height="20" rx="4" fill="#000"/>
    <text x="130" y="159" text-anchor="middle" font-size="10" fill="#fff" font-family="monospace">npm install</text>
  </g>

  <!-- Arrows from packages to app -->
  <g stroke="#000" stroke-width="3" fill="none">
    <path d="M 290 180 L 340 180 L 340 270 L 380 270" marker-end="url(#arrow)"/>
    <path d="M 290 360 L 340 360 L 340 270 L 380 270" marker-end="url(#arrow)"/>
  </g>

  <!-- Arrow marker -->
  <defs>
    <marker id="arrow" markerWidth="10" markerHeight="10" refX="9" refY="3" orient="auto" markerUnits="strokeWidth">
      <path d="M0,0 L0,6 L9,3 z" fill="#000"/>
    </marker>
  </defs>

  <!-- Center: KasFlow App -->
  <g transform="translate(390, 140)">
    <rect width="200" height="260" rx="16" fill="#fff" stroke="#000" stroke-width="5"/>
    <rect x="8" y="8" width="200" height="260" rx="16" fill="#000" opacity="0.08"/>

    <!-- App header -->
    <rect x="0" y="0" width="200" height="50" rx="16" fill="#f472b6" stroke="#000" stroke-width="5"/>
    <rect x="0" y="25" width="200" height="25" fill="#f472b6"/>
    <text x="100" y="32" text-anchor="middle" class="box-title" fill="#000">KasFlow App</text>

    <!-- Features list -->
    <text x="100" y="80" text-anchor="middle" class="box-text">Create Payment Links</text>
    <text x="100" y="100" text-anchor="middle" class="box-text">QR Code Generation</text>
    <text x="100" y="120" text-anchor="middle" class="box-text">Real-Time Detection</text>
    <text x="100" y="140" text-anchor="middle" class="box-text">Instant Confirmations</text>
    <text x="100" y="160" text-anchor="middle" class="box-text">Receipt Download</text>

    <!-- Zero backend badge -->
    <rect x="35" y="180" width="130" height="30" rx="6" fill="#fde68a" stroke="#000" stroke-width="2"/>
    <text x="100" y="200" text-anchor="middle" font-size="11" font-weight="700" fill="#000">No Backend Needed</text>

    <!-- Built with Next.js -->
    <text x="100" y="240" text-anchor="middle" font-size="10" fill="#475569">Built with Next.js 14</text>
  </g>

  <!-- Arrow from app to Kaspa -->
  <path d="M 590 270 L 640 270" stroke="#000" stroke-width="3" fill="none" marker-end="url(#arrow)"/>

  <!-- Right: Kaspa Network -->
  <g transform="translate(650, 170)">
    <rect width="200" height="200" rx="100" fill="#a78bfa" stroke="#000" stroke-width="4"/>

    <text x="100" y="80" text-anchor="middle" font-family="system-ui, sans-serif" font-weight="800" font-size="24" fill="#000">KASPA</text>
    <text x="100" y="105" text-anchor="middle" font-family="system-ui, sans-serif" font-weight="600" font-size="14" fill="#000">BlockDAG</text>

    <text x="100" y="135" text-anchor="middle" class="box-text">~1 second finality</text>
    <text x="100" y="155" text-anchor="middle" class="box-text">10 blocks/second</text>
    <text x="100" y="175" text-anchor="middle" class="box-text">Mainnet + Testnet</text>
  </g>

  <!-- Bottom labels -->
  <text x="160" y="480" text-anchor="middle" class="label" fill="#000">SDK PACKAGES</text>
  <text x="490" y="480" text-anchor="middle" class="label" fill="#000">WEB APPLICATION</text>
  <text x="750" y="480" text-anchor="middle" class="label" fill="#000">BLOCKCHAIN</text>
</svg>
